/* XPM */
static char * wall_xpm[] = {
"32 32 20 1",
" 	c #000200",
".	c #050804",
"+	c #090C08",
"@	c #0D100C",
"#	c #121411",
"$	c #161815",
"%	c #1B1D1B",
"&	c #232422",
"*	c #272826",
"=	c #2C2E2C",
"-	c #343633",
";	c #383937",
">	c #3E403D",
",	c #454744",
"'	c #484A48",
")	c #4F514E",
"!	c #575956",
"~	c #626461",
"{	c #6D6F6C",
"]	c #7A7C79",
"      . .      +#+@ .@+. .+.. ..",
"%&>>=!)>;,-*,!',,,''),'!),!)!!;%",
"%>,!)!,*&~!,{>----*=;---;;==;,,-",
"*;-&%$%%''!]==-&*-&%=-=&@@.$#+@-",
"$-&&&*&$$=-&==&&%#%%&%##$#;*%*&&",
"+&%&%##$>>=>&%*$%=>%$==*&$#=*%&*",
"#%*-&%%&=*=;=;---=);=%%&-=$=>,>*",
"+*%&%$%&&*&&=-'===$%%&%$$$$$&%*%",
"@#%%$%%%*=-;>>====-;*==*%$%$&%$@",
" $-=&%&=====*&&&&**&**%#%****$++",
" .%%%@#$++.          .+.    ...&",
"==#@@$$%%%%$$%%$@+@$$&==*&-;,!!'",
");=;;--;========*%&=-,,>-;')>>;-",
"=&%%&=*&$$%*%*&-->#;!$*#&*%*&&&&",
"%#$##$$$%#+@%%*=&&@-$*%$%##%%$#@",
"#$@@##$$$$%%#%%*&&$=###$$%%%#@@#",
"#%$$$###***&@$$&%%@$$#$$$*&%###$",
"&%$%%%%%*&$$$$$%&%@+ @@#+#$#%%$%",
"%%#$%%$#$#%&$$&&*%$$@.$=#$#$&%$*",
"&>&%*&%%%#$$%&&&&@=&%#%&%*#&#.#$",
">&&->=-;==*%$%$%&==##$%%&--$%&%*",
"@#&&%&=>&%%$$$$#.#=&*$%%$$%#*%#%",
"%&)!)!!~~~~))!!!!~!')~~!!~~{{{!;",
"@+&%%*%@%**&&==*=&%%$*&&**=>;*,*",
"*%.+@%%@@#$$@#@#+%%&$$@#**&&,!'%",
"=&@+++##@+#$#@$@##$%%%$$%%&%$;=@",
"=*@+@+@+@#$$@@$+@$%$*%$$#@+$$&-@",
"=%@+@###$###@#@%$@#$#$$#$$%#&$%#",
">-&%%%$$&%%%$#@#$%%$$%$#@#%%@#&%",
";=&%$#+++@@#@+$#$%%%$$%**&&&%&&%",
"&&&%%==->;-->>=#$$#%$%**$@$&''))",
"!~!~]~{{{{!{;'';#,{!))~{~~~~~{{{"};
