/* XPM */
static char * mouse32_xpm[] = {
"32 32 374 2",
"  	c #000000",
". 	c #0D0101",
"+ 	c #96827A",
"@ 	c #715D54",
"# 	c #614C45",
"$ 	c #5E4B3D",
"% 	c #624A40",
"& 	c #513F35",
"* 	c #594A47",
"= 	c #5F524D",
"- 	c #564845",
"; 	c #544842",
"> 	c #4A3C39",
", 	c #29201C",
"' 	c #8B716D",
") 	c #6B5148",
"! 	c #68544D",
"~ 	c #4E3A30",
"{ 	c #463229",
"] 	c #604F47",
"^ 	c #5B4C44",
"/ 	c #372C28",
"( 	c #3C2C28",
"_ 	c #6D5A53",
": 	c #3D2922",
"< 	c #63443B",
"[ 	c #796860",
"} 	c #795E53",
"| 	c #735A52",
"1 	c #665450",
"2 	c #65524B",
"3 	c #5B4839",
"4 	c #6C563E",
"5 	c #453428",
"6 	c #423024",
"7 	c #31221B",
"8 	c #654E44",
"9 	c #4B3026",
"0 	c #745044",
"a 	c #6B5045",
"b 	c #C4AA9E",
"c 	c #837269",
"d 	c #573C31",
"e 	c #8F7469",
"f 	c #705852",
"g 	c #786056",
"h 	c #7F6959",
"i 	c #776051",
"j 	c #644D3D",
"k 	c #5F4932",
"l 	c #5B4434",
"m 	c #392717",
"n 	c #71564B",
"o 	c #674B42",
"p 	c #78584B",
"q 	c #765148",
"r 	c #64554B",
"s 	c #523D32",
"t 	c #A38D7F",
"u 	c #6A534E",
"v 	c #402416",
"w 	c #A17E6E",
"x 	c #80665B",
"y 	c #6E564D",
"z 	c #563F31",
"A 	c #8D7664",
"B 	c #654E3F",
"C 	c #765F4F",
"D 	c #4C3620",
"E 	c #2D1B0E",
"F 	c #3A2C1E",
"G 	c #624B44",
"H 	c #543930",
"I 	c #87675A",
"J 	c #A58D84",
"K 	c #33241D",
"L 	c #211614",
"M 	c #2D201F",
"N 	c #4F3F37",
"O 	c #7C6455",
"P 	c #52352A",
"Q 	c #55311D",
"R 	c #765A4E",
"S 	c #785E56",
"T 	c #654E3E",
"U 	c #3E291A",
"V 	c #6E5748",
"W 	c #7B654E",
"X 	c #664F3F",
"Y 	c #614633",
"Z 	c #64513A",
"` 	c #402718",
" .	c #473B33",
"..	c #472C1F",
"+.	c #907564",
"@.	c #B08C87",
"#.	c #777064",
"$.	c #3C2C27",
"%.	c #1E1519",
"&.	c #2E1E1F",
"*.	c #423029",
"=.	c #5E422E",
"-.	c #D2AEA2",
";.	c #784A3D",
">.	c #866652",
",.	c #6C5140",
"'.	c #9C8A7B",
").	c #7A5D4B",
"!.	c #80644D",
"~.	c #967C62",
"{.	c #695242",
"].	c #584329",
"^.	c #4F3824",
"/.	c #432E1B",
"(.	c #6D5739",
"_.	c #4A3B35",
":.	c #483530",
"<.	c #A17E70",
"[.	c #77534E",
"}.	c #8C8073",
"|.	c #3E2D26",
"1.	c #47423D",
"2.	c #1C1714",
"3.	c #61554F",
"4.	c #5B4233",
"5.	c #D0B4A8",
"6.	c #643F33",
"7.	c #D6B7A2",
"8.	c #97785B",
"9.	c #B49984",
"0.	c #896D5E",
"a.	c #9A7D68",
"b.	c #7F634E",
"c.	c #563825",
"d.	c #483223",
"e.	c #48302C",
"f.	c #90765B",
"g.	c #493325",
"h.	c #745F4C",
"i.	c #271E21",
"j.	c #6C4138",
"k.	c #9B897D",
"l.	c #3B2E1E",
"m.	c #270E00",
"n.	c #77675D",
"o.	c #140A09",
"p.	c #362D29",
"q.	c #574336",
"r.	c #6C554E",
"s.	c #AC8773",
"t.	c #85695A",
"u.	c #B89B86",
"v.	c #87694F",
"w.	c #6A5037",
"x.	c #755434",
"y.	c #806C54",
"z.	c #87705E",
"A.	c #6D5740",
"B.	c #67513A",
"C.	c #89715A",
"D.	c #876D52",
"E.	c #463F39",
"F.	c #5C3933",
"G.	c #988474",
"H.	c #6F6156",
"I.	c #5E5042",
"J.	c #7C6F65",
"K.	c #71645C",
"L.	c #4E483F",
"M.	c #513C32",
"N.	c #988180",
"O.	c #66483B",
"P.	c #A2866B",
"Q.	c #C8AD98",
"R.	c #9D846C",
"S.	c #86664D",
"T.	c #714F39",
"U.	c #5D381B",
"V.	c #4B321B",
"W.	c #634B2E",
"X.	c #7C6957",
"Y.	c #968270",
"Z.	c #A58E76",
"`.	c #61472C",
" +	c #DEC5A3",
".+	c #5A4A3C",
"++	c #66564A",
"@+	c #94877D",
"#+	c #8C7C6D",
"$+	c #52473D",
"%+	c #7E756C",
"&+	c #50493E",
"*+	c #010000",
"=+	c #968482",
"-+	c #977462",
";+	c #BF9E86",
">+	c #A88F82",
",+	c #CEB39B",
"'+	c #836249",
")+	c #9E7B59",
"!+	c #907050",
"~+	c #84664C",
"{+	c #B89774",
"]+	c #CEB7A0",
"^+	c #6A553E",
"/+	c #A89476",
"(+	c #1D0A03",
"_+	c #AA8A6E",
":+	c #574A38",
"<+	c #A2957C",
"[+	c #463D3A",
"}+	c #010100",
"|+	c #BAA69E",
"1+	c #8F7C7E",
"2+	c #BC9681",
"3+	c #C29B7E",
"4+	c #D8BCA7",
"5+	c #C8A88F",
"6+	c #9A7354",
"7+	c #8D6544",
"8+	c #846045",
"9+	c #57351C",
"0+	c #987D60",
"a+	c #B7A18A",
"b+	c #927C65",
"c+	c #8D6950",
"d+	c #A28462",
"e+	c #301C0A",
"f+	c #B69C7F",
"g+	c #ADADAD",
"h+	c #534944",
"i+	c #2A2320",
"j+	c #DEC7C2",
"k+	c #917768",
"l+	c #AB7C5D",
"m+	c #DEC4A4",
"n+	c #DCBDA0",
"o+	c #D7AA82",
"p+	c #AB7E54",
"q+	c #744B26",
"r+	c #9C7C58",
"s+	c #91785E",
"t+	c #CBB79F",
"u+	c #A5927B",
"v+	c #AD9176",
"w+	c #9B8067",
"x+	c #967458",
"y+	c #AA9075",
"z+	c #29241F",
"A+	c #535353",
"B+	c #6A6055",
"C+	c #32281E",
"D+	c #D4C0B7",
"E+	c #947969",
"F+	c #FDF2E6",
"G+	c #F0ECE4",
"H+	c #E6D6C5",
"I+	c #E3CEB8",
"J+	c #97704C",
"K+	c #A07345",
"L+	c #CCAE92",
"M+	c #D0BDA5",
"N+	c #9E8B76",
"O+	c #6A5541",
"P+	c #634C2E",
"Q+	c #C7A886",
"R+	c #C7AB8C",
"S+	c #947D6C",
"T+	c #9A8E7E",
"U+	c #8B7D71",
"V+	c #615348",
"W+	c #4B3225",
"X+	c #D9CECB",
"Y+	c #B29995",
"Z+	c #F1F5F2",
"`+	c #F5F4F4",
" @	c #FBF9F5",
".@	c #EEE4D1",
"+@	c #E5C9AB",
"@@	c #E2C2A8",
"#@	c #D2BFA7",
"$@	c #94816C",
"%@	c #D2BAA1",
"&@	c #BDA687",
"*@	c #654A2F",
"=@	c #A68364",
"-@	c #C5A483",
";@	c #A08169",
">@	c #977F60",
",@	c #867666",
"'@	c #AA8B6D",
")@	c #8F7F6C",
"!@	c #726052",
"~@	c #2F2420",
"{@	c #4C3832",
"]@	c #F8F2ED",
"^@	c #B58F90",
"/@	c #806B66",
"(@	c #C5BFC0",
"_@	c #E5E0DC",
":@	c #DDDAD0",
"<@	c #EFEADF",
"[@	c #EAE3D0",
"}@	c #ECD9C5",
"|@	c #968670",
"1@	c #C9B093",
"2@	c #876B4E",
"3@	c #D3B291",
"4@	c #D7BA9E",
"5@	c #B69570",
"6@	c #A27952",
"7@	c #BE9471",
"8@	c #7A6053",
"9@	c #7E6B5E",
"0@	c #342724",
"a@	c #372924",
"b@	c #30211C",
"c@	c #DBB4A2",
"d@	c #D6BBB7",
"e@	c #E4CCC5",
"f@	c #7A685C",
"g@	c #C5BBB7",
"h@	c #E0DFDF",
"i@	c #FBFAF1",
"j@	c #DFD7C7",
"k@	c #D6BB9C",
"l@	c #A68461",
"m@	c #BEA082",
"n@	c #E8DACC",
"o@	c #F7ECDD",
"p@	c #DFC7AE",
"q@	c #DCC2A7",
"r@	c #D5C4B2",
"s@	c #31191B",
"t@	c #816569",
"u@	c #645450",
"v@	c #1F100B",
"w@	c #F6E2CD",
"x@	c #D89B86",
"y@	c #FFECE6",
"z@	c #FEF5F6",
"A@	c #FCF6F0",
"B@	c #B7B1AB",
"C@	c #E0E1D9",
"D@	c #EEDBD3",
"E@	c #B9997A",
"F@	c #C0A196",
"G@	c #B7998C",
"H@	c #A89691",
"I@	c #C8BDB5",
"J@	c #DFDCD5",
"K@	c #E7E6DE",
"L@	c #9E8382",
"M@	c #452422",
"N@	c #4E2525",
"O@	c #4A221F",
"P@	c #F2DFD4",
"Q@	c #BB907D",
"R@	c #BBA18E",
"S@	c #F7E5E4",
"T@	c #7E645C",
"U@	c #F2EEEC",
"V@	c #AE9A97",
"W@	c #E3DEDA",
"X@	c #512727",
"Y@	c #4F2626",
"Z@	c #ECCCBD",
"`@	c #FFF4EB",
" #	c #F3E1DE",
".#	c #FFF1EF",
"+#	c #7D523D",
"@#	c #72503F",
"##	c #ECD4BD",
"$#	c #E8CCC0",
"                                                                ",
"                                                                ",
"                                                                ",
"                                                                ",
"                                                                ",
"                                                                ",
"                                                                ",
"                                                    .           ",
"                        + @ # $                     % .         ",
"                      & * = - ; > . . ,           . ' .         ",
"                  ) ! ~ { ] ^ / ( _ : < .         [ } .         ",
"                | 1 2 3 4 5 6 7 . 8 9 0 a b     . c d .         ",
"              e f g h i j k l m . n o p q r s t . u v .         ",
"    w         x y z A B C D E F . G H I J K L M N O P .         ",
"    Q         R S T U V W X Y Z `  ...+.@.#.$.%.&.*.=..         ",
"  -.;.      >.,.'.).!.~.{.].^./.(._.:.<.[.}.|.1.2.3.4.          ",
"  5.6.  7.  8.9.0.a.b.c.d.e.f.g.h.. i.j.k.l.m.n.o.p.q.          ",
"    r.      s.t.u.v.w.x.y.z.A.B.C.D.E.F.G.H.I.J.K.L.M.          ",
"    N.O.    P.Q.R.S.T.U.V.W.X.Y.Z.`. +.+++@+#+$+%+&+*+          ",
"      =+-+  ;+>+,+'+)+!+~+{+]+^+/+(+_+:+<+        [+}+          ",
"      |+1+2+3+4+5+6+7+8+9+0+a+b+c+d+e+f+  g+      h+i+          ",
"        j+k+l+m+n+o+p+q+r+s+t+u+v+w+x+y+z+A+      B+C+          ",
"          D+E+F+G+H+I+J+K+L+M+N+O+P+Q+R+S+        T+U+V+W+      ",
"            X+Y+Z+`+ @.@+@@@#@$@%@&@*@=@-@;@>@,@'@)@!@~@{@      ",
"              ]@^@/@(@_@:@<@[@}@|@1@2@3@4@5@6@7@8@9@0@a@b@      ",
"            c@d@`+e@    f@g@h@i@j@k@l@m@n@o@p@q@r@s@t@u@v@      ",
"            w@x@y@z@A@        B@C@D@E@F@G@H@I@J@K@L@M@N@O@      ",
"                P@Q@R@S@          T@U@V@          W@N@X@Y@      ",
"                  Z@                `@ #.#+#    @#              ",
"                                    ##$#                        ",
"                                                                ",
"                                                                "};
