/* XPM */
static char * wall_xpm[] = {
"32 32 111 2",
"  	g #030303",
". 	g #000000",
"+ 	g #040404",
"@ 	g #080808",
"# 	g #050505",
"$ 	g #020202",
"% 	g #0A0A0A",
"& 	g #131313",
"* 	g #0B0B0B",
"= 	g #111111",
"- 	g #070707",
"; 	g #0E0E0E",
"> 	g #0D0D0D",
", 	g #060606",
"' 	g #090909",
") 	g #1E1E1E",
"! 	g #222222",
"~ 	g #3D3D3D",
"{ 	g #424242",
"] 	g #2F2F2F",
"^ 	g #545454",
"/ 	g #525252",
"( 	g #383838",
"_ 	g #474747",
": 	g #373737",
"< 	g #272727",
"[ 	g #434343",
"} 	g #565656",
"| 	g #4C4C4C",
"1 	g #464646",
"2 	g #454545",
"3 	g #494949",
"4 	g #4F4F4F",
"5 	g #444444",
"6 	g #575757",
"7 	g #515151",
"8 	g #595959",
"9 	g #535353",
"0 	g #5C5C5C",
"a 	g #3C3C3C",
"b 	g #1D1D1D",
"c 	g #1C1C1C",
"d 	g #484848",
"e 	g #505050",
"f 	g #2A2A2A",
"g 	g #242424",
"h 	g #616161",
"i 	g #5E5E5E",
"j 	g #6B6B6B",
"k 	g #343434",
"l 	g #363636",
"m 	g #282828",
"n 	g #2E2E2E",
"o 	g #393939",
"p 	g #2C2C2C",
"q 	g #313131",
"r 	g #333333",
"s 	g #3A3A3A",
"t 	g #212121",
"u 	g #1A1A1A",
"v 	g #4D4D4D",
"w 	g #4A4A4A",
"x 	g #555555",
"y 	g #828282",
"z 	g #2D2D2D",
"A 	g #232323",
"B 	g #1F1F1F",
"C 	g #101010",
"D 	g #171717",
"E 	g #252525",
"F 	g #2B2B2B",
"G 	g #191919",
"H 	g #141414",
"I 	g #1B1B1B",
"J 	g #151515",
"K 	g #161616",
"L 	g #0C0C0C",
"M 	g #202020",
"N 	g #121212",
"O 	g #3F3F3F",
"P 	g #292929",
"Q 	g #303030",
"R 	g #3B3B3B",
"S 	g #353535",
"T 	g #181818",
"U 	g #414141",
"V 	g #323232",
"W 	g #010101",
"X 	g #0F0F0F",
"Y 	g #3E3E3E",
"Z 	g #404040",
"` 	g #262626",
" .	g #5A5A5A",
"..	g #626262",
"+.	g #646464",
"@.	g #5F5F5F",
"#.	g #5B5B5B",
"$.	g #656565",
"%.	g #5D5D5D",
"&.	g #727272",
"*.	g #6E6E6E",
"=.	g #676767",
"-.	g #606060",
";.	g #777777",
">.	g #747474",
",.	g #6D6D6D",
"'.	g #717171",
").	g #6F6F6F",
"!.	g #4B4B4B",
"~.	g #707070",
"{.	g #686868",
"  . . + +   @ . #     + + $ . % & * =   - ; > @ + , % - ' . - , ",
") ! ~ { ] ^ / { ( _ : < [ } | 1 1 2 3 3 4 5 | 6 7 _ 8 9 0 8 a b ",
"c ~ d ^ e 6 2 f g h i _ j ~ k l l k m n o : l l o o p q o 2 1 r ",
"f s r t b u b ) v w x y z q k ! m l A B n l ] ! = C @ u & % ; r ",
"D k g E g F g G u z l ! p p E A c H I I g b J & K H o < ) m ! ! ",
"L ! M A b J N u ~ { ] O ! ) P K M Q ~ c K p p P t u J z < M A m ",
"H I f r A b I A p P q R Q a r r k q e ( Q M I g S ] T p O 2 U m ",
"L P B t ) G B E g P g t q l 3 ] q p T I c t B u T u u K t M f M ",
"= N M I G I b b F ] V o { O q p z ] : a F n p < c u I T A b T ; ",
". G V n E b E z Q ] p z P g A E E < m E f < ) J M f f F f G % L ",
"$ ' B M c C & D > % , $ . . . W W + + . . ' * , . .   + - @ ' t ",
"p z N X X D u I b c I G u I B D = L = T D A p q P A k a _ 8 0 v ",
"4 R ] ( o k l o n z n ] n n q n P B E q r 1 1 Y : R 3 9 O Z a k ",
"n ` ) ) A z f E T G M < M < E V : { N R  .T P & ` m M < ! t ` g ",
") N T J J G u u I H % X c B m n E ` C k u m ) G c N & I I K H = ",
"& K X = H J K K D T c b H B ) < t A D ] H J J G D c I I & C C & ",
"J b K T T J H H f F f A X T G ! M M ; D u & D K G m A b H & H T ",
"A M u I b B ) ) f A T T T D D b ! b ; L + ; = & L & K H b c K b ",
"b ) J u ) b T H T H c g K T t A P M D G C @ K z J u J K ! ) D < ",
"` ~ g b < t M c I J K D b A g ` t C Q E M J M t I < J E N ' & D ",
"{ E ` k O q S a q Q f B T M K M g p q N H K B b A S V G M A b f ",
"= H A E ) A z Y ` ) c u D u D N ' J n g < u I I K D B N m B H c ",
"B ` / 6 / 8  .....+.@.9 7 i  .x #.@. .| 9 $.+.%.i $.h &.j *.i a ",
"; > g ) I < c C B < F ` g p p P z g b c u m ` A < < q ~ s m 2 F ",
"f b ' % = ) ) C = H G T C & ; & > M B ! u T = J f < E ` 2 6 | c ",
"z ` C % L L H N ; > N K N = K = & H D c c B u D B M ! M u o Q = ",
"p P ; * X L ; % X N K D C = u L X T c T < b T D H ; > G G E l ; ",
"q c X * ; N H & K J H N = N X I K = J K & u T H D u I & ! K ) N ",
"Y l A b I c u u A M ) b T J = & K b B u u I G H C N I b C H g I ",
"( z g b G J > > > ; C H = * K J G c c b u K B P m g A A I E t I ",
"E A g b I z n : Z a l S Z U q N K G J c G ) m F K X D ` w v / / ",
"i =.%.-.;.=.>.,.'.&.#.).R !.3 ( J 2 ~.} 4 9 =.*.{...$.=.{.*.,.&."};
