/* XPM */
static char * syr_xpm[] = {
"32 32 207 2",
"  	c #FFFFFF",
". 	c #FEFEFC",
"+ 	c #FEFEFE",
"@ 	c #FDFDFD",
"# 	c #333935",
"$ 	c #221C28",
"% 	c #8C9695",
"& 	c #EDF3E9",
"* 	c #E5E5FF",
"= 	c #FBFBFB",
"- 	c #FEFAFB",
"; 	c #FFFFF8",
"> 	c #AEA033",
", 	c #F9CE0E",
"' 	c #F4DF48",
") 	c #E0CE5E",
"! 	c #FFDE10",
"~ 	c #FFF92B",
"{ 	c #090400",
"] 	c #EDEEF0",
"^ 	c #FDFEFF",
"/ 	c #FFFFFB",
"( 	c #0A0700",
"_ 	c #FCD806",
": 	c #FBD100",
"< 	c #F3E336",
"[ 	c #F78B04",
"} 	c #E57B00",
"| 	c #0E0D09",
"1 	c #F9D409",
"2 	c #F9DA06",
"3 	c #010005",
"4 	c #FDF5F2",
"5 	c #020300",
"6 	c #FFE104",
"7 	c #FFD203",
"8 	c #FFD603",
"9 	c #0B000A",
"0 	c #0D0002",
"a 	c #ECD200",
"b 	c #F9C80C",
"c 	c #FFCB00",
"d 	c #FFCE12",
"e 	c #100E11",
"f 	c #F9F9F9",
"g 	c #373536",
"h 	c #F2DB11",
"i 	c #4D4100",
"j 	c #F4D407",
"k 	c #EEDC0E",
"l 	c #F6D808",
"m 	c #FED001",
"n 	c #FECF07",
"o 	c #FFD30D",
"p 	c #FFD605",
"q 	c #FEDB0D",
"r 	c #F9CA00",
"s 	c #7C6D1C",
"t 	c #E9D534",
"u 	c #060000",
"v 	c #C3CB52",
"w 	c #FDFEF9",
"x 	c #D7D2D8",
"y 	c #A2981F",
"z 	c #FECC0B",
"A 	c #FFCF03",
"B 	c #FBD103",
"C 	c #FAE33D",
"D 	c #F18306",
"E 	c #F08000",
"F 	c #010300",
"G 	c #030200",
"H 	c #948B2E",
"I 	c #FFFF31",
"J 	c #F3EE00",
"K 	c #FFF009",
"L 	c #FEEB08",
"M 	c #F7D909",
"N 	c #F6CB00",
"O 	c #FCD403",
"P 	c #FEFFFA",
"Q 	c #201400",
"R 	c #EAD641",
"S 	c #2B2B00",
"T 	c #000500",
"U 	c #47491A",
"V 	c #D9DF25",
"W 	c #FFFA34",
"X 	c #F47700",
"Y 	c #F28100",
"Z 	c #F3D500",
"` 	c #F8D107",
" .	c #FBCF0A",
"..	c #F0C700",
"+.	c #F7CB00",
"@.	c #F8CA00",
"#.	c #FDCD01",
"$.	c #FDD001",
"%.	c #FDD100",
"&.	c #F8D600",
"*.	c #FFEC0B",
"=.	c #FDD90B",
"-.	c #F2CE06",
";.	c #F7CD00",
">.	c #FED201",
",.	c #FCD202",
"'.	c #FED102",
").	c #FFD811",
"!.	c #FAD600",
"~.	c #FED200",
"{.	c #F9CC00",
"].	c #EA8F00",
"^.	c #E98600",
"/.	c #FFE016",
"(.	c #F7D406",
"_.	c #040016",
":.	c #FEEF3A",
"<.	c #FBD101",
"[.	c #FDD003",
"}.	c #FAD300",
"|.	c #613900",
"1.	c #8F5F0B",
"2.	c #FFD700",
"3.	c #C1C5AE",
"4.	c #FCD300",
"5.	c #F3DD18",
"6.	c #E3D036",
"7.	c #F7D400",
"8.	c #FDD600",
"9.	c #F5CF00",
"0.	c #F9CB04",
"a.	c #FFDF04",
"b.	c #FBCB09",
"c.	c #F5CD09",
"d.	c #FAFAF8",
"e.	c #F3F1F6",
"f.	c #040716",
"g.	c #F9D302",
"h.	c #FAD200",
"i.	c #FFF32F",
"j.	c #F66D03",
"k.	c #C18A38",
"l.	c #FFD600",
"m.	c #FBD200",
"n.	c #FCD402",
"o.	c #F9CF00",
"p.	c #FCD000",
"q.	c #F8D000",
"r.	c #FFD505",
"s.	c #FDD20A",
"t.	c #070705",
"u.	c #D27D00",
"v.	c #321800",
"w.	c #F7A803",
"x.	c #FDFDFB",
"y.	c #F5DC06",
"z.	c #FCCF00",
"A.	c #F6D200",
"B.	c #FFD106",
"C.	c #FFD500",
"D.	c #201C2D",
"E.	c #030007",
"F.	c #F5CA02",
"G.	c #F5C207",
"H.	c #F5AA03",
"I.	c #F9A801",
"J.	c #F7A805",
"K.	c #FAA605",
"L.	c #F7A900",
"M.	c #926417",
"N.	c #E68400",
"O.	c #000411",
"P.	c #FAA70B",
"Q.	c #FED500",
"R.	c #F6C801",
"S.	c #EAA603",
"T.	c #FBAE08",
"U.	c #FFA212",
"V.	c #FFA816",
"W.	c #F6AA00",
"X.	c #F6A000",
"Y.	c #FAA700",
"Z.	c #F9A703",
"`.	c #E0B00E",
" +	c #000209",
".+	c #FFCA19",
"++	c #FFA40B",
"@+	c #B6AFB6",
"#+	c #BBBACA",
"$+	c #FFFEFA",
"%+	c #858E8D",
"&+	c #D9DEDA",
"*+	c #F5FEED",
"=+	c #676E67",
"-+	c #636862",
";+	c #5F645E",
">+	c #60655E",
",+	c #5C635B",
"'+	c #5C605F",
")+	c #5A6350",
"!+	c #4E5752",
"~+	c #454F44",
"{+	c #3A3C39",
"]+	c #333736",
"^+	c #202A22",
"/+	c #0A0F08",
"(+	c #090A04",
"                                                                ",
"                                                                ",
"                                                                ",
"                                                                ",
"                                                                ",
"                                                                ",
"                                                                ",
"                                                                ",
"                                  . + . + +                     ",
"                                @ # $ % & * =                   ",
"                            - ; > , ' ) ! ~ { ] ^               ",
"                          / ( _ : < [ } | 1 : 2 3 4             ",
"                          5 6 7 : 8 9 0 a b : c d e             ",
"                  f g h i j k l m n o p q r s t u v .           ",
"              w x y z A B C D E F G H I J K L M N O P           ",
"              Q R S T U V W X Y Z `  ...+.@.#.$.%.&.P           ",
"            *.=.-.;.>.,.,.'.).!.~.: %.{.].^./.: : (.P           ",
"            _.:.<.: : : : : : : : : [.}.|.1.2.: : (.P           ",
"            @ 3.4.: : 5.6.7.8.: : : <.<.9.9.0.a.b.c.d.          ",
"            e.f.g.%.h.i.j.k.l.m.n.o.p.q.r.s.t.u.v.w.x.          ",
"            y.<.z.A.B.C.D.E.F.G.H.I.J.K.L.w.M.N.O.P.x.          ",
"            Q.<.R.S.T.U.V.W.X.Y.Z.I.J.K.L.w.`. +.+++x.          ",
"            @+#+$+%+&+*+=+-+;+>+,+'+)+!+~+{+]+^+/+(+d.          ",
"                                                                ",
"                                                                ",
"                                                                ",
"                                                                ",
"                                                                ",
"                                                                ",
"                                                                ",
"                                                                ",
"                                                                "};