/* XPM */
static char * col_xpm[] = {
"32 32 50 1",
" 	c #0B080D",
".	c #121402",
"+	c #182007",
"@	c #162400",
"#	c #1F210B",
"$	c #2D2205",
"%	c #1C290B",
"&	c #272914",
"*	c #232B13",
"=	c #252B0E",
"-	c #1F2E08",
";	c #222F11",
">	c #223508",
",	c #2E3417",
"'	c #293617",
")	c #30322F",
"!	c #293712",
"~	c #32341D",
"{	c #2C361D",
"]	c #3C3928",
"^	c #3A3C25",
"/	c #363F26",
"(	c #30421D",
"_	c #314317",
":	c #394021",
"<	c #364220",
"[	c #633900",
"}	c #3B4239",
"|	c #4E450B",
"1	c #444A2C",
"2	c #3D4E21",
"3	c #434C32",
"4	c #404E2A",
"5	c #4B5936",
"6	c #58604B",
"7	c #A47017",
"8	c #96851F",
"9	c #D77D00",
"0	c #848D7A",
"a	c #FA7C00",
"b	c #F18600",
"c	c #FDA800",
"d	c #CCBC47",
"e	c #C1BAB3",
"f	c #FCC500",
"g	c #FFCD02",
"h	c #FFD400",
"i	c #F8DD17",
"j	c #FEF200",
"k	c #EFE7DC",
"2!43:/35-4(-<,,3={'<-<:(%,45</'>",
"4!(/4(!4::44''((4<'<-::'4=,%!4-<",
",+'5!(<5!^5(%=<<35%<4<+!!{+/'4!<",
"+,('44'444=':4441-4;(!<!<,='%-5+",
"'/(!(5;((%3,;'<<=,<5!::(!<=<'-<4",
"<%@(>!'<%;''1*6{,,*/&='4<-;!4-2-",
"{{;44!'{{(4'+/1+3,/+~{'1;11!!4_<",
"1#;;/'6;4<44*<</~^*,,:!<'{,54('1",
"4=5@5/%44++-+-;{3+*=<'{4'{:!!!!!",
"{'<5<1*'33<@4(!'/} 0kk13=;<4!!!2",
"{''(;13;';%4@('{dgidij k6%4-!;@4",
"%4((''+<%'<;;<.hgibb hgh ''44'%-",
";42@''54--<5< ihgh  hfgfg '5'=:'",
"3!'3+4'((4)i|hihgghhif8i d:,//~^",
",/{{;+;(k8gggiaa  8jjjjhgh6===3^",
"{.4'%';.i$ |ijaahggggfgggh/*633&",
"*+='4_jhgghhhghhhgggbbiggh1&^&/:",
"//+;(' igggggggggggh[7hggh~&&&&=",
"/=!/*{{ehggiihhgggggggfifg<~&1+'",
"/'{'<{* hghja7hhhggghh 9$c!1,,,'",
";5-**{igghgh  gfcccccc7b c=!:/^=",
"%;{{;4hgfcccccccccccccf fc:<:*&&",
"*+^/('ee'0kk66666666}})). *<,3~&",
"<%*;<%%%;{.!<{+/;-**{{{%!45:1/*+",
"/;{<<{%,,35<-%*6+<{*^.#;-!=/3===",
"{/*+*555;+//{*6=5;^^=1,/+,/^~&=:",
"''***3'!%.*{3*/+##{+++*/'/=3/,^^",
"%5=*{~]%;//63{+'+*4={3&=4;%+*+,*",
";(-'%=#.#{*/,/,;*3='4'*&//+,=,:*",
"%'2!(;+='=+3+=+:{{/144:1!/{::%1{",
"+%!<{%3=''+{**+/{*/,'<<4'3/=*%;'",
"{%{{&*/%@1*{**+%{//=%;<;%33=+{*+"};
