/* XPM */
static char * exit_mys_xpm[] = {
"32 32 30 1",
" 	c #090C08",
".	c #101604",
"+	c #161D08",
"@	c #1D2309",
"#	c #182507",
"$	c #22240C",
"%	c #1F2C0B",
"&	c #2A2C17",
"*	c #282E11",
"=	c #262F17",
"-	c #2C2E2C",
";	c #253312",
">	c #2B3917",
",	c #35352E",
"'	c #313A22",
")	c #333A1C",
"!	c #373922",
"~	c #2E4115",
"{	c #31401D",
"]	c #3E4527",
"^	c #394723",
"/	c #414340",
"(	c #3D462D",
"_	c #43502D",
":	c #4A5139",
"<	c #4C5B37",
"[	c #576147",
"}	c #626461",
"|	c #838681",
"1	c #A3A5A2",
"^>_(]':<%_{%]*)(*'>^%{)~%*_<{()>",
"^;{'_{>]])_^>;^^^^>^%)]>^$*#;^%{",
"*@><>^{:>!<{%*{)(<%]_^@>>'+'>_>^",
"@){>^_;_^_*;||}}}|1;~;]>^)*;#;<+",
")'{>^<%^{1}        -|1]{>^*];;{_",
"{%#~~>){|             1_^%;>_;^%",
"==%_^>>/               |;]]>;^~{",
"]$%;')-                 |= <_{;]",
"_*<%<}      |}[[         1[ >>>;",
"=>]<|      :[[:::  &      | >>>^",
"')>1     [[:![[&![!:     }} >;#_",
"%_~1    [[[:[!!& [![[1   |: ^;%;",
";_<}   |[}}}[[:! [[[[[:1 [! >*)>",
":>|    }[:|[}!&! [:}1&&&:}: ''!!",
")(]    [}[![}[][!:!|1}!&&!] **:!",
"=.:   }[1}}|[]!![:!|[|!:&[: [(:$",
"@+:   ||}|}]!!|!} &:1!+} &:|!&')",
"(([   |}|}[[}}[[}}::|}[}}:! |&$@",
"(*|:  |1|}[]![}||]1:[||:|:   (@>",
"';'|| |11}|}}|1[|+|[|    :   )*;",
";_%1|||11|}}]|1|}:!|11   :&  '!*",
"%%'11||111|[||1|||||&[   }&  @&&",
"=@!(| |1111||11|[[11|    1|[!:!&",
"{%=%]}111111111|11[|1|||||}&:'=@",
"(;={{'-11}111111|1}11|||}}&&&*@*",
"''=@=<</11  }11111||11 |@+}[&&*]",
";)===(11111    111|1111111!!!)!!",
"%<*==!!%1||1     }11|1&*_1!!!@)=",
";{;>%*+.$1@'||}}}|111[=&['+)**)=",
"#;_>{%@*>*@(#*+)==11_^)];'=])%]'",
"+#>]'#(*;;+=@=@''@(*;{{_;((*@#;;",
"'#''&@'%#_====+#=''*#;]%#((*@'=+"};
