/* XPM */
static char * exit_xpm[] = {
"32 32 30 1",
" 	c #090C08",
".	c #101604",
"+	c #161D08",
"@	c #1D2309",
"#	c #182507",
"$	c #22240C",
"%	c #1F2C0B",
"&	c #2A2C17",
"*	c #282E11",
"=	c #262F17",
"-	c #2C2E2C",
";	c #253312",
">	c #2B3917",
",	c #35352E",
"'	c #313A22",
")	c #333A1C",
"!	c #373922",
"~	c #2E4115",
"{	c #31401D",
"]	c #3E4527",
"^	c #394723",
"/	c #414340",
"(	c #3D462D",
"_	c #43502D",
":	c #4A5139",
"<	c #4C5B37",
"[	c #576147",
"}	c #626461",
"|	c #838681",
"1	c #A3A5A2",
"_{_____[{__{_{{_{{{_>___>{_____{",
"_{____{__{__{{____{_>__{_>{>{_{_",
"{;{[{__[{_[_>{____>___;{{{@_{_{_",
";{_{__{___{{||}}}|1{_{_{__{{>{_@",
"{__{__{__1}        -|1__{_>_{{__",
"_>>_{{{_|             1__>{{_{_>",
"{{{__{{/               |{__{{___",
"_>{{_{-                 |{{___{_",
"_{[>[}                   1_{{{{{",
"{{__|                     1_{{{_",
"{{{1                      }{{{>_",
">__1                       __{>{",
"{__}                       1{{_{",
"_{1                        }____",
"{_1                         {>[_",
"{@1                         [__>",
";@1                         _{__",
"__1                         >{>>",
"_{1                        }{_;{",
"_{{}                       1{{{{",
"{_>1                       ____{",
">>{1                      }__;{>",
"{;__|                     1_{__{",
"_>{{_}                   1[___{;",
"_{{__{-                 |{{__{>{",
"{_{;{__/               |>{__{{{_",
"{{{{{_{{|             1_{_{__{__",
">_{{{__>{1}        -|1>{_{>@;;{{",
"{_{{>>>@>{;_||}}}|1{_{{{__@{{{_{",
";{___{;{{{;_;{;_{{______{_{__>_{",
"@;{_{;_>{{;{;{;_{;_{{___{__>;;{{",
"{;{{>;_>>_{{{;;;{__{>{_{;__{;{;@"};
