/* XPM */
static char * exit_xpm[] = {
"32 32 26 1",
" 	g #C2C2C2",
".	g #B9B9B9",
"+	g #8E8E8E",
"@	g #888888",
"#	g #686868",
"$	g #717171",
"%	g #9A9A9A",
"&	g #BEBEBE",
"*	g #A0A0A0",
"=	g #5E5E5E",
"-	g #0C0C0C",
";	g #303030",
">	g #797979",
",	g #B0B0B0",
"'	g #7A7A7A",
")	g #B5B5B5",
"!	g #454545",
"~	g #808080",
"{	g #333333",
"]	g #696969",
"^	g #8F8F8F",
"/	g #5D5D5D",
"(	g #A1A1A1",
"_	g #5F5F5F",
":	g #ABABAB",
"<	g #A6A6A6",
"                                ",
"                                ",
"                                ",
"           .+@##$+%             ",
"        &*=--------;>,          ",
"       .'-------------%         ",
"      )!---------------~        ",
"     ){-----------------~       ",
"    .]-------------------%      ",
"   &^---------------------,     ",
"   ,----------------------/     ",
"   (-----------------------     ",
"  ._-----------------------%    ",
"  ,------------------------/    ",
"  :-------------------------    ",
"  <-------------------------    ",
"  <-------------------------    ",
"  :-------------------------    ",
"  ,------------------------/    ",
"  ._-----------------------%    ",
"   (-----------------------     ",
"   ,----------------------/     ",
"   &^---------------------,     ",
"    .]-------------------%      ",
"     ){-----------------~       ",
"      )!---------------~        ",
"       .'-------------%         ",
"        &*=--------;>,          ",
"           .+@##$+%             ",
"                                ",
"                                ",
"                                "};
