/* XPM */
static char * floor_xpm[] = {
"32 32 749 2",
"  	c #364C26",
". 	c #2B3B17",
"+ 	c #485230",
"@ 	c #424A33",
"# 	c #3A4324",
"$ 	c #363F24",
"% 	c #485136",
"& 	c #566842",
"* 	c #202E0A",
"= 	c #42502F",
"- 	c #2E3F1B",
"; 	c #1E2F0B",
"> 	c #394424",
", 	c #2D3319",
"' 	c #2F381D",
") 	c #414A2F",
"! 	c #282E14",
"~ 	c #30361C",
"{ 	c #2F3819",
"] 	c #394724",
"^ 	c #1B2C08",
"/ 	c #32401F",
"( 	c #323B1C",
"_ 	c #32471E",
": 	c #1E290B",
"< 	c #2A3110",
"[ 	c #414F2C",
"} 	c #47562D",
"| 	c #313F1C",
"1 	c #354226",
"2 	c #2E3C1B",
"3 	c #253409",
"4 	c #3A4A26",
"5 	c #293412",
"6 	c #30401C",
"7 	c #324027",
"8 	c #40502C",
"9 	c #2D3D19",
"0 	c #283814",
"a 	c #3B4928",
"b 	c #343B19",
"c 	c #45512D",
"d 	c #3A4B27",
"e 	c #2A3918",
"f 	c #293318",
"g 	c #354521",
"h 	c #374723",
"i 	c #3D4826",
"j 	c #3C4725",
"k 	c #364421",
"l 	c #1D2B08",
"m 	c #353E1F",
"n 	c #3B4022",
"o 	c #2D3617",
"p 	c #3B4925",
"q 	c #23260B",
"r 	c #2B3115",
"s 	c #182507",
"t 	c #253310",
"u 	c #3E4C28",
"v 	c #212F0C",
"w 	c #2B3419",
"x 	c #182106",
"y 	c #2B3A19",
"z 	c #4A5938",
"A 	c #263713",
"B 	c #4F5635",
"C 	c #2B3614",
"D 	c #373A25",
"E 	c #515C3E",
"F 	c #2F401E",
"G 	c #202B0B",
"H 	c #2A2D10",
"I 	c #334120",
"J 	c #313F1E",
"K 	c #3E4B31",
"L 	c #4B5A33",
"M 	c #1C2A09",
"N 	c #354322",
"O 	c #3F4D29",
"P 	c #3D4725",
"Q 	c #1F2308",
"R 	c #2B3513",
"S 	c #2F3917",
"T 	c #2E361E",
"U 	c #161E06",
"V 	c #2F3C20",
"W 	c #2B3918",
"X 	c #455330",
"Y 	c #273512",
"Z 	c #384623",
"` 	c #1A2308",
" .	c #2E371C",
"..	c #2E3D1C",
"+.	c #293817",
"@.	c #3B4C28",
"#.	c #445430",
"$.	c #273514",
"%.	c #444F2D",
"&.	c #394925",
"*.	c #465133",
"=.	c #252E13",
"-.	c #2A3314",
";.	c #414C2C",
">.	c #3F4D2C",
",.	c #455332",
"'.	c #3E472A",
").	c #252F0D",
"!.	c #3D4B2A",
"~.	c #22300F",
"{.	c #2E431C",
"].	c #233410",
"^.	c #354224",
"/.	c #293714",
"(.	c #313A1D",
"_.	c #262F12",
":.	c #283519",
"<.	c #192706",
"[.	c #24320F",
"}.	c #485633",
"|.	c #0E1C00",
"1.	c #303B1D",
"2.	c #313B20",
"3.	c #303F1E",
"4.	c #283915",
"5.	c #314520",
"6.	c #445531",
"7.	c #222F11",
"8.	c #2C3D19",
"9.	c #1A2908",
"0.	c #454F34",
"a.	c #32361B",
"b.	c #273011",
"c.	c #273617",
"d.	c #374524",
"e.	c #1E2506",
"f.	c #2B3213",
"g.	c #394426",
"h.	c #4D583A",
"i.	c #2D3715",
"j.	c #3C4226",
"k.	c #32421D",
"l.	c #394422",
"m.	c #20290C",
"n.	c #374426",
"o.	c #23310E",
"p.	c #34421E",
"q.	c #404E2B",
"r.	c #314021",
"s.	c #1D2C0D",
"t.	c #142302",
"u.	c #31461F",
"v.	c #1F360C",
"w.	c #253916",
"x.	c #2C3B1E",
"y.	c #344525",
"z.	c #1C290B",
"A.	c #223112",
"B.	c #2C3B1C",
"C.	c #313C1C",
"D.	c #424B2E",
"E.	c #262E16",
"F.	c #5F6C52",
"G.	c #2A3620",
"H.	c #2B3117",
"I.	c #303718",
"J.	c #232811",
"K.	c #343922",
"L.	c #282C15",
"M.	c #292F15",
"N.	c #2E3919",
"O.	c #42502D",
"P.	c #3A4825",
"Q.	c #1E2A06",
"R.	c #252F14",
"S.	c #293713",
"T.	c #43512D",
"U.	c #24320E",
"V.	c #3B4A21",
"W.	c #27351B",
"X.	c #253319",
"Y.	c #232D12",
"Z.	c #3D4C2B",
"`.	c #364A25",
" +	c #273B18",
".+	c #29381B",
"++	c #27371C",
"@+	c #2E3B21",
"#+	c #303B1B",
"$+	c #161F02",
"%+	c #343C24",
"&+	c #414A2B",
"*+	c #1B2409",
"=+	c #4B503A",
"-+	c #2A3016",
";+	c #393E27",
">+	c #171C05",
",+	c #2D311A",
"'+	c #2E341A",
")+	c #4B5435",
"!+	c #293213",
"~+	c #40462A",
"{+	c #464D2E",
"]+	c #2B3915",
"^+	c #263410",
"/+	c #334219",
"(+	c #32401D",
"_+	c #3D4627",
":+	c #20240B",
"<+	c #202D11",
"[+	c #243115",
"}+	c #313E22",
"|+	c #2D3A1E",
"1+	c #536044",
"2+	c #223110",
"3+	c #3F4E2D",
"4+	c #2F3E1F",
"5+	c #3F4E2F",
"6+	c #222A12",
"7+	c #3D4724",
"8+	c #384323",
"9+	c #3A4026",
"0+	c #353823",
"a+	c #3B3E29",
"b+	c #232B13",
"c+	c #2D3619",
"d+	c #293217",
"e+	c #384124",
"f+	c #2B3512",
"g+	c #303E1B",
"h+	c #273418",
"i+	c #293119",
"j+	c #2C3518",
"k+	c #45552E",
"l+	c #44542D",
"m+	c #2E3E19",
"n+	c #414628",
"o+	c #232C11",
"p+	c #485935",
"q+	c #172806",
"r+	c #4F603E",
"s+	c #374428",
"t+	c #1B280C",
"u+	c #3A4928",
"v+	c #3C4B2A",
"w+	c #192308",
"x+	c #172106",
"y+	c #27310F",
"z+	c #1C240C",
"A+	c #232D0A",
"B+	c #263015",
"C+	c #30351F",
"D+	c #3F4730",
"E+	c #151D06",
"F+	c #283018",
"G+	c #1D2609",
"H+	c #323D1B",
"I+	c #2C3717",
"J+	c #2E381D",
"K+	c #263317",
"L+	c #303820",
"M+	c #323B1E",
"N+	c #2A3A16",
"O+	c #2A3411",
"P+	c #2C341C",
"Q+	c #293819",
"R+	c #374625",
"S+	c #485736",
"T+	c #242C14",
"U+	c #414E32",
"V+	c #394726",
"W+	c #182804",
"X+	c #3C4C28",
"Y+	c #2F3F1B",
"Z+	c #2B3C18",
"`+	c #263315",
" @	c #364327",
".@	c #293618",
"+@	c #2A371B",
"@@	c #374023",
"#@	c #232C0D",
"$@	c #3F4829",
"%@	c #495237",
"&@	c #273015",
"*@	c #253216",
"=@	c #3E4C29",
"-@	c #2C3A17",
";@	c #3F4E25",
">@	c #2C3B1A",
",@	c #212F0E",
"'@	c #475033",
")@	c #4C543C",
"!@	c #2B381C",
"~@	c #172504",
"{@	c #3B4B27",
"]@	c #142400",
"^@	c #2C391B",
"/@	c #313921",
"(@	c #4A5338",
"_@	c #283114",
":@	c #243211",
"<@	c #222B0C",
"[@	c #424B30",
"}@	c #576045",
"|@	c #1D2A0E",
"1@	c #3F4D2A",
"2@	c #2B3916",
"3@	c #233110",
"4@	c #142201",
"5@	c #404E2A",
"6@	c #3E4D2C",
"7@	c #2F441D",
"8@	c #334420",
"9@	c #263514",
"0@	c #293414",
"a@	c #172406",
"b@	c #354425",
"c@	c #1B2A0B",
"d@	c #212E10",
"e@	c #253312",
"f@	c #374521",
"g@	c #31361F",
"h@	c #20240D",
"i@	c #2F341D",
"j@	c #363C22",
"k@	c #252E0F",
"l@	c #424E2A",
"m@	c #343E1C",
"n@	c #323C1A",
"o@	c #2C351A",
"p@	c #2B3616",
"q@	c #44502A",
"r@	c #3E4826",
"s@	c #26310F",
"t@	c #233014",
"u@	c #3D4E2A",
"v@	c #40552E",
"w@	c #162504",
"x@	c #293716",
"y@	c #556342",
"z@	c #1F2F0B",
"A@	c #495436",
"B@	c #364123",
"C@	c #2F3A1C",
"D@	c #1F230C",
"E@	c #353922",
"F@	c #373C25",
"G@	c #2E371A",
"H@	c #394223",
"I@	c #323B20",
"J@	c #2D361B",
"K@	c #343D1E",
"L@	c #2E3718",
"M@	c #5A6441",
"N@	c #435034",
"O@	c #293A16",
"P@	c #3D472C",
"Q@	c #111B02",
"R@	c #2D3D16",
"S@	c #374720",
"T@	c #44522F",
"U@	c #2A3815",
"V@	c #212514",
"W@	c #1E220B",
"X@	c #474B34",
"Y@	c #292E17",
"Z@	c #3B4029",
"`@	c #1F270F",
" #	c #374025",
".#	c #20290E",
"+#	c #242D12",
"@#	c #313A1B",
"##	c #343D22",
"$#	c #373F27",
"%#	c #32361D",
"&#	c #383C23",
"*#	c #364528",
"=#	c #2B351A",
"-#	c #2C361B",
";#	c #222C11",
">#	c #17240A",
",#	c #30411D",
"'#	c #495B33",
")#	c #3B4D27",
"!#	c #253511",
"~#	c #313A1F",
"{#	c #3B4429",
"]#	c #3C4A27",
"^#	c #2B3019",
"/#	c #1A2505",
"(#	c #121B00",
"_#	c #292D14",
":#	c #3D4329",
"<#	c #353F26",
"[#	c #545E45",
"}#	c #212A0D",
"|#	c #242D10",
"1#	c #222B0E",
"2#	c #4C553A",
"3#	c #363A21",
"4#	c #29311A",
"5#	c #091700",
"6#	c #41502F",
"7#	c #273615",
"8#	c #1B2A09",
"9#	c #283517",
"0#	c #233012",
"a#	c #344521",
"b#	c #112300",
"c#	c #31431D",
"d#	c #2C3C18",
"e#	c #1D260B",
"f#	c #2F3A18",
"g#	c #32391A",
"h#	c #24230E",
"i#	c #1D200B",
"j#	c #222D0F",
"k#	c #3F4A2C",
"l#	c #3F482D",
"m#	c #1F230A",
"n#	c #252B11",
"o#	c #2F351B",
"p#	c #222710",
"q#	c #252D15",
"r#	c #586048",
"s#	c #424A32",
"t#	c #22260D",
"u#	c #1E260F",
"v#	c #131B04",
"w#	c #263413",
"x#	c #263F15",
"y#	c #3E5028",
"z#	c #455433",
"A#	c #1E330C",
"B#	c #364822",
"C#	c #37491F",
"D#	c #2B4017",
"E#	c #21310D",
"F#	c #343F21",
"G#	c #252912",
"H#	c #3F472F",
"I#	c #2C3218",
"J#	c #111700",
"K#	c #22260F",
"L#	c #2A2E17",
"M#	c #333720",
"N#	c #42482C",
"O#	c #74825F",
"P#	c #43472E",
"Q#	c #232611",
"R#	c #3C3F2A",
"S#	c #282B16",
"T#	c #343D20",
"U#	c #384029",
"V#	c #3C442D",
"W#	c #1F2D0C",
"X#	c #31421E",
"Y#	c #263715",
"Z#	c #354320",
"`#	c #283217",
" $	c #253413",
".$	c #192703",
"+$	c #2D3F17",
"@$	c #171A09",
"#$	c #292D16",
"$$	c #1D2307",
"%$	c #2E3418",
"&$	c #2B2F16",
"*$	c #21250E",
"=$	c #2F311B",
"-$	c #172003",
";$	c #1B250A",
">$	c #31351C",
",$	c #262914",
"'$	c #292B16",
")$	c #262812",
"!$	c #22260B",
"~$	c #384126",
"{$	c #263411",
"]$	c #303D21",
"^$	c #233016",
"/$	c #313E24",
"($	c #2F3C22",
"_$	c #333B23",
":$	c #273210",
"<$	c #283613",
"[$	c #2F3D1A",
"}$	c #3C442F",
"|$	c #2C311A",
"1$	c #2A2C16",
"2$	c #292C17",
"3$	c #2F331A",
"4$	c #21260F",
"5$	c #41472B",
"6$	c #343B1C",
"7$	c #1F280D",
"8$	c #333D1B",
"9$	c #2C3019",
"0$	c #434730",
"a$	c #2A3817",
"b$	c #29361A",
"c$	c #2B371F",
"d$	c #2A321A",
"e$	c #29361C",
"f$	c #2F371F",
"g$	c #2A3316",
"h$	c #222B10",
"i$	c #2A2F18",
"j$	c #30321C",
"k$	c #1D2108",
"l$	c #3A3F28",
"m$	c #353A23",
"n$	c #2C3216",
"o$	c #1D2309",
"p$	c #282D19",
"q$	c #303A18",
"r$	c #3F482B",
"s$	c #2F381B",
"t$	c #2A3318",
"u$	c #465536",
"v$	c #1C2D09",
"w$	c #263017",
"x$	c #242C15",
"y$	c #323F25",
"z$	c #2D3520",
"A$	c #414931",
"B$	c #3A422B",
"C$	c #363F22",
"D$	c #1E270A",
"E$	c #363C20",
"F$	c #232710",
"G$	c #242A10",
"H$	c #32381C",
"I$	c #1B200C",
"J$	c #30351E",
"K$	c #242B0C",
"L$	c #2E3C19",
"M$	c #333C1F",
"N$	c #353B21",
"O$	c #383C25",
"P$	c #1E2B0D",
"Q$	c #202D0F",
"R$	c #2E3B1F",
"S$	c #2C391F",
"T$	c #3E4B2D",
"U$	c #303D23",
"V$	c #1C2508",
"W$	c #283116",
"X$	c #3E462F",
"Y$	c #343C27",
"Z$	c #374021",
"`$	c #363F20",
" %	c #20250F",
".%	c #282D17",
"+%	c #373C26",
"@%	c #0D1600",
"#%	c #1F250B",
"$%	c #262A13",
"%%	c #272F17",
"&%	c #1A220A",
"*%	c #3C402F",
"=%	c #344125",
"-%	c #30411F",
";%	c #2C391D",
">%	c #3C452A",
",%	c #343C25",
"'%	c #575E4E",
")%	c #1C2506",
"!%	c #32361F",
"~%	c #30341D",
"{%	c #2B301C",
"]%	c #131706",
"^%	c #282C1B",
"/%	c #384625",
"(%	c #324118",
"_%	c #454C2B",
":%	c #4C5238",
"<%	c #334225",
"[%	c #1F290E",
"}%	c #232E10",
"|%	c #364423",
"1%	c #1F2C10",
"2%	c #19260A",
"3%	c #1D2C0F",
"4%	c #202F12",
"5%	c #253218",
"6%	c #041100",
"7%	c #27341A",
"8%	c #1B230C",
"9%	c #3D452E",
"0%	c #22300D",
"a%	c #202A11",
"b%	c #272C15",
"c%	c #2C311B",
"d%	c #2C341D",
"e%	c #293915",
"f%	c #444E2C",
"g%	c #50593C",
"h%	c #262B15",
"i%	c #1B200A",
"j%	c #374629",
"k%	c #354022",
"l%	c #3D4A30",
"m%	c #485537",
"n%	c #394723",
"o%	c #212F0B",
"p%	c #232B14",
"q%	c #515942",
"r%	c #132002",
"s%	c #283219",
"t%	c #242912",
"u%	c #3A3D28",
"v%	c #0F1200",
"w%	c #1F220D",
"x%	c #273214",
"y%	c #232C0F",
"z%	c #383D26",
"A%	c #494E37",
"B%	c #262C12",
"C%	c #20260A",
"D%	c #252B0F",
"E%	c #2A371D",
"F%	c #465632",
"G%	c #4C5C35",
"H%	c #485834",
"I%	c #263113",
"J%	c #0F1700",
"K%	c #323A23",
"L%	c #353D25",
"M%	c #5A6346",
"N%	c #4A5537",
"O%	c #363A23",
"P%	c #43492D",
"Q%	c #2A3014",
"R%	c #1A2102",
"S%	c #383B26",
"T%	c #2F321D",
"U%	c #2B2F18",
"V%	c #3B4125",
"W%	c #273416",
"X%	c #2D3A1C",
"Y%	c #292E18",
"Z%	c #252D16",
"`%	c #414B30",
" &	c #1D280A",
".&	c #0B1300",
"+&	c #202811",
"@&	c #2E3621",
"#&	c #4C543F",
"$&	c #202813",
"%&	c #1A220B",
"&&	c #21240F",
"*&	c #192109",
"=&	c #181D07",
"-&	c #1D220C",
";&	c #3B452A",
">&	c #2A3515",
",&	c #353E23",
"'&	c #363B25",
")&	c #3A3F29",
"!&	c #455530",
"~&	c #262F14",
"{&	c #323520",
"]&	c #3B392A",
"^&	c #21300F",
"/&	c #364329",
"(&	c #535B44",
"_&	c #474F38",
":&	c #192207",
"<&	c #2A2F19",
"[&	c #495330",
"}&	c #2D371C",
"|&	c #404A31",
"1&	c #242915",
"2&	c #2B2F14",
"3&	c #45502E",
"4&	c #1F2809",
"5&	c #131B03",
"6&	c #1E260E",
"7&	c #161F04",
"8&	c #30391C",
"9&	c #233215",
"0&	c #334221",
"a&	c #22300C",
"b&	c #161705",
"c&	c #252614",
"d&	c #2D351D",
"e&	c #202810",
"f&	c #262F10",
"g&	c #252A14",
"h&	c #444933",
"i&	c #404B2B",
"j&	c #2B3618",
"k&	c #292C1B",
"l&	c #39432B",
"m&	c #1A270D",
"n&	c #3E5124",
"o&	c #2C3C15",
"p&	c #31411D",
"q&	c #242F11",
"r&	c #273013",
"s&	c #272D13",
"t&	c #1C210A",
"u&	c #3E472C",
"v&	c #182104",
"w&	c #141D02",
"x&	c #2B301A",
"y&	c #363E26",
"z&	c #434C2D",
"A&	c #47532F",
"B&	c #353E21",
"C&	c #3F4627",
"D&	c #283311",
"E&	c #323C23",
"F&	c #2B331B",
"G&	c #20290A",
"H&	c #40492C",
"I&	c #161B05",
"J&	c #1D270C",
"K&	c #384527",
"L&	c #1E280F",
"M&	c #3F4930",
"N&	c #2B3415",
"O&	c #19210C",
"P&	c #212911",
"Q&	c #19210A",
"R&	c #3A422A",
"S&	c #293215",
"T&	c #344221",
"U&	c #283615",
"V&	c #3C492D",
"W&	c #253214",
"X&	c #2B381E",
"Y&	c #262B17",
"Z&	c #1C290D",
"`&	c #162707",
" *	c #454E2F",
".*	c #252D18",
"+*	c #1C2311",
"@*	c #1D2911",
"#*	c #323A22",
"$*	c #1B2606",
"%*	c #222F13",
"&*	c #1A270B",
"**	c #3F4C30",
"=*	c #3B482C",
"-*	c #151E03",
";*	c #1F2C12",
">*	c #0E1B01",
"  . + @ # $ % & * = - ; > , ' ) ! ~ { ] ^ / ( _ : < [ } | 1 2 3 ",
"4 5 6 7 8 9 0 a # b c d e f g h i j { k l m n o p q r s t u v | ",
"w x y z A g / B C D E F G H I J K L M N O P Q R S T U V W X Y Z ",
"`  ...+.@.#.$.%.&.*.=.-.( ;.>.,.'.).!.~.{.].^./.Z (._.:.<.[.}.|.",
"1.2.3.4.5.6.7.g 8.9.0.a.b.c.d./ e.f.g.h.i.# j.k.. l.m.n.$.o.p.q.",
"r.s.t.u.v.w.x.y.z.A.B.C.D.E.F.G.H.I.J.K.L.M.N.O.P.Q.R.S.T.U.V.l ",
"W.X.Y.Z.`. +.+++@+9 4 #+$+%+&+*+=+-+;+>+,+'+C.)+!+~+{+]+^+u /+(+",
"_+:+<+[+}+|+1+2+3+4+5+i 6+7+8+9+0+a+b+c+d+e+f+g+h+i+j+k+l+m+-.n+",
";.o+p+q+r+s+t+u+v+w+x+y+z+A+B+C+D+E+F+G+H+I+J+X K+L+M+0 N+N+]+O+",
"P+Q+R+S+N D.T+|+U+U+V+W+X+Y+Z+`+ @.@+@|+@@#@$@%@&@*@| =@-@Y S.;@",
"T B.>@3.,@'@)@*@!@[+~@{@]@h ^@/@(@_@:@J )+_+<@[@}@|@1@v 2@3@4@5@",
"|@6@7@8@9@0@a@b@c@W | d@e@f@g@h@i@j@k@l@m@n@m@' o@p@{ q@r@p@G s@",
"t@u@v@w@^@x@y@8 z@l P.A@B@C@D@E@F@;+G@( -.H@!+I@J@K@L@M@L@&@( L@",
"N@O@9@P@Q@a x@R@S@T@U@<@K.V@W@X@Y@Z@`@ #% ' *+.#+#<@H@@###$#%#&#",
"J@*#=#-#;#>#*@,#'#)#!#~#o@{#]##@^#/#S._+2.(#_#j@:#<#[#}#|#1#2#3#",
"4#5#6#7#8#9#0#a#b#c#d#e#=.I@f#g#f.h#i#j#k#l#m#n#o#p#;+q#r#s#% t#",
"u#v#=.w#u@x#y#z#A#B#C#D#E#F#z+G#E.H#I#J#K#L#M#N#O#0.P#Q#R#S#K.T#",
"U#V#` W#X#Y#Z#`# $x@.$+$z@k# #@$L##$$$%$&$*$#$=$-$;$>$,$,$'$)$!$",
"~$=.{$]$^$i+L+/$($_$1#:$<$[$M+}$|$1$2$3$K.4$5$6$;+7$8$9$#$0$*+a$",
"}+b$c$.@J d$`@^$e$f$g$o+h$J@T I@i$j$Q#k$l$m$n$o$p$w q$r$s$s$t$w#",
"2+u$v$w$x$-#y$b$+@z${#o+A$B$/@C$D$E$F$L.^#G$I#H$I$J$K$L$M$N$O$! ",
"P$Q$R$S$R.T$U$|+U+%+d$V$W$X$Y$&@Z$`$G#M# %.%+%@%_.o#E$Z#@@#%L.$%",
"%%&%*%=%-%9#S$h+;%<@/@>%+#,%'%V#)%o !%~%{%]%^%/%(%_%i$P.G@:%M#L.",
"<%[%i$}%|%1%2%3%4%5%6%<$n.7%8%9%0#0%a%b%c%d%d%: e%f%g%E$~+N$h%i%",
"j%B+|$k%I R$2%w w l%m%n%o%P$p%q%r%(+s%t%u%v%w%x%z@S y%z%A%B%C%D%",
"E%($.%i%E.F%G%H%I%J%K%L%d$6+M%G+N%I%O$O%B%P%Q%N$R%J@ #S%T%U%D%V%",
"W%X%.%Y%Z%`%I+0  &.&+&@&#&$&,%%&&&&&L+*&=&-& %;&>&##=.l#,&J@'&)&",
"8#!&~&x$d%{&]&c@^&/&/&(&_&d%:&L@i%<&[&}#}&|&1&2&3&!+4&5&6&7&8&%%",
"9&0&a&x@z..#i#b&c&d&e&~#W$~$w f&g&h&1#{ i&j&b%k&l&~#(#j+|#g$T#q#",
"m&.@n&o&p&q&x r&{ s&t&u&v&o+w&( x&x&y&z&A&i B&C&D&E&F&# B&G&H&J+",
"I&J&O@K&d&L&M&h$`+N&O&P+P&q#Q&}+d&P&R&S&p@I T&!.U&V&1 h$e#;$W&9#",
"C+;$X&z$Y&J.z%Z&`& *.*P+q#b++*@*P+L%#*r&$*~./%%*&***=*o+-*-#;*>*"};
