/* XPM */
static char * floor_xpm[] = {
"32 32 20 1",
" 	c #121A03",
".	c #1C250D",
"+	c #26220D",
"@	c #242507",
"#	c #22250F",
"$	c #1D2908",
"%	c #243112",
"&	c #2B300E",
"*	c #2B3114",
"=	c #2B311A",
"-	c #263510",
";	c #2A3719",
">	c #3A3B25",
",	c #373E23",
"'	c #324022",
")	c #32411B",
"!	c #404E28",
"~	c #434D30",
"{	c #525D40",
"]	c #62724F",
"~'~~!!~]'~!'!''~'''~;!!!;)~~!!!'",
"~'!!~!'~!)~~')!!~~'!;!!'~;';'~)!",
"'%'{'!!{'!{!;'!!~~;!~~%'''.!'~'!",
"%'!'~~'~~~')!~~~~)~)!'!'!!'';'~.",
"'!!'!~)!!;~')'!!;'!{'!!!'!;!''!~",
"!;;!'''!;)'!~']'''%!'''~~;)'~'~;",
"'')~~''''!~'%!~%~'!.''!~)~~''~!!",
"!;))!'{)~!~~%~!!!!%''!'!'''~~!)~",
"~'{;{!;~~%%'%;)'~.';!''~)!!'''''",
"''!~!~''~~!;~!!)!'''!;~~')!~'''~",
"'''!)~~)');~;!'!~')!~!;~{;~)');~",
";~!!''%!;'!))!';'!)~!!!''''~~';'",
")~~;''{~';~~!';!!!'!)!)!'!'{''!'",
"~''~.~'!!~';!;;~'!%!~'%;';!!!!!!",
"'!'';%)!~~'!'!~;';'!!.'!!!{;';{!",
"'.~';')!;!!%'!'!'%;)~~;''%!'{~~;",
"%.')~!~~'!~!'!%;'~'.;'!~]~!;!'!!",
"!!%;!'!))';!'~!.''%'';''%%';;';;",
"!''!)'!!!!;''!!!''''!%~!!;!''!%'",
"!'''!'%)'''';''!'';;!!'%'''~''')",
")~;'''!'''!'~!!!;!;'';'';';!!!!'",
";;'')~!'~!';'~!'!!;!%'!.''!!!%';",
"'%!!!'''';!!'!{!;'!''.'!!~'~'~!'",
"!;')!;%;)'.'!'%!)'%'''';'~{!~!'%",
"!)'!!'%''~~~';%{%!'%!.;)'''!~';'",
"'!'%'~~~).!!'%{;~)!!'~'!;'!!'''!",
"'''''~'';.%'{%!%;;!%.%%!'!'~!'!!",
";~'''!!;)!!{~'%'%'~;'~;'~);.%%''",
")!'';;;.;'%!'!')%~;'~'''!!.'''!'",
"%'~!!)%'''%~%'%!''!~~~!~'!'!!;~'",
".%'!'%~;)'%'%'%!'%!''!!~'~!;%%)'",
"'%'';%!;;~'''%%%'!!';)!)%~~'%'%."};
