/* XPM */
static char * player_xpm[] = {
"32 32 50 1",
" 	c #000000",
".	c #130302",
"+	c #151C07",
"@	c #281A16",
"#	c #192205",
"$	c #1C290A",
"%	c #21280E",
"&	c #272914",
"*	c #272E13",
"=	c #223010",
"-	c #3A2A24",
";	c #4E2722",
">	c #442E1C",
",	c #2B381A",
"'	c #303719",
")	c #2B3A14",
"!	c #30381F",
"~	c #353720",
"{	c #354321",
"]	c #3B442B",
"^	c #503D34",
"/	c #37471B",
"(	c #3E4526",
"_	c #49433B",
":	c #3D4A26",
"<	c #65462A",
"[	c #604735",
"}	c #6E4338",
"|	c #495139",
"1	c #46532F",
"2	c #604D45",
"3	c #556143",
"4	c #725A4F",
"5	c #7F6248",
"6	c #70685C",
"7	c #80695C",
"8	c #89796E",
"9	c #75825F",
"0	c #9F7C5B",
"a	c #9A7F69",
"b	c #9E897F",
"c	c #CB9581",
"d	c #B69F8C",
"e	c #B39F9C",
"f	c #C09F80",
"g	c #D8BFA3",
"h	c #D6C2B9",
"i	c #EDDEC9",
"j	c #E8DFD9",
"k	c #F9F2EC",
":)1](]|3=1)={'']*!,:={'/$'11)],)",
":))]:))(('1:,,{:::,{='(,:&*$=:=)",
"'#,1){{1)~3{$*{{]1${::%))!+!,1):",
"#'{,:1,1:1*,':11(=:=/){):'*,$=1+",
",!{){1={)$|'=,{{%'{1)(({){%{,={:",
"{=$/)),{$=,,(*3!*'%!&*,1:==)1=/=",
",*=::),!!):,#!(%|*]+~!,1=(()):/{",
"(&==!,3=1{1:%:{]~~%'*()),*.11),(",
":*1$3]$(:##=%4=!]+*%),!1,![.))))",
"!,{1{(*,||(^222__..@($(|*.7.)))/",
"!,,{=1|=,42^>22--4-[.($|364.)=$:",
"$:/{=,#{42225^>-.2>}4d)'.8^.:,$=",
"=:1$,,3:4474[[[>.4[4}2^b.4;.,*',",
"|)a]+(,74[a[4>@-.2^7b-@@^7;.!]~~",
"'];!$#=44[>45[[[>^>ab6-.@-[.**|~",
"*h},$,5[b45a[<>>5^^a}8-_@2[*3]|&",
"%h},:/0d7a5>>-0>4.@}b>@6.-^&~&!'",
"]]4${,a7d5<<575[a5_}b6286_^&&&&%",
"]*b}**0da5<<><7aa<g24b828_   ]%,",
"!,!ba*fbg5005fg[f.0[d    _   '',",
"=1=e8cfgf055<0da50>f e   _@  !~*",
"$$!!h80ggf0<0agdda0a@_   6-  %&&",
"*#]]{hakkig00gga4<ffa    b82>|~&",
"{$*={$hekkkigggagf<0fa080a4@^!%#",
"]=*{{!#ke7hjjkiiag5ggf0f47---*%*",
"!!*#*11hkh!!7hjkjg0fikggh@72@&*(",
",,***|ickkk!|%!ejifddehjjb;;;'~~",
"$1**!~~$icdj|!#,#*ke!]&*1j;;;#'*",
"={=,$%++&!%!*]'=%|kjk,*&]!+'*''*",
"#,/){=#*,*#]#*#'**]h1:'(=!!('$(!",
"+%){!%]*,,+!%*#!!%]*,{{:,]]*%#=,",
"!#!!&%!$$(*!*%+%!!!*$={=#]]*#!%+"};
