/* XPM */
static char * player_xpm[] = {
"32 32 20 1",
" 	c #000000",
".	c #202311",
"+	c #301E19",
"@	c #283416",
"#	c #4E3428",
"$	c #33401F",
"%	c #473D37",
"&	c #424E2A",
"*	c #54483F",
"=	c #6B5145",
"-	c #526144",
";	c #7B5B3E",
">	c #6D5F52",
",	c #7F6556",
"'	c #A4815F",
")	c #98847B",
"!	c #A0846F",
"~	c #C4AF9F",
"{	c #CEAE91",
"]	c #EEE3D9",
"&$&&&&&>$&&$&$$&$$$&@&&&@$&&&&&$",
"&$&&&&$&&$&&$$&&&&$&@&&$&@$@$&$&",
"$@$-$&&-$&-&@$&&&&@&&&@$$$.&$&$&",
"@$&$&&$&&&$$&&&&&$&$&$&$&&$$@$&.",
"$&&$&&$&&@&$$$&&@$&-$&&&$&@&$$&&",
"&@@&$$$&@$$&&$>$$$@&$$$&&@$$&$&@",
"$$$&&$$$$&&$@&&@&$&.$$&&$&&$$&&&",
"&@$$&$-$&&&&@&&&&&@$$&$&$$ &&&$&",
"&$-@-&@&&@@$)>==&.$@&$$&$&= $$$$",
"$$&&&&$$&&&#****%  +&@&&$ , $$$&",
"$$$&$&&$$==##=*++>+= &@&->, $$@&",
"@&&&$$@&====;##+ =#==~&$ )# &$@$",
"$&&@$$-,=,,,===# ====>#) =# $$&$",
"&$!&.&$,=#!=,#++ =#,)+++*,# &&&&",
"$&#$@@$=,=#=,===#%#!)>+ +## $@-&",
"$.;$@$,=),,!=###;%%!=)#%+*#$-&&@",
"@.#$&&'!,!,###'#, +=)#+> +#~&$&&",
"&&=@&$!,~;;;,,;=,;%#)>=>>*# !$@@",
"&$)=$$'~!;;##;,!!;{*>))*)*   &@$",
"&$$)!${){;'';'~;!+'*!    %   $$$",
"$&@~)!{~{';;#'~!;'+{{]   *+  &&$",
"@@$$])'{{{';'!~!!!'!+)   >+  @$@",
"$@&&&$!]]]]''{~!=;{{!    ))*#&&$",
"&@$$&@])]]]]{{~!{{;'{!')'!>+%&$@",
"&$$&&$@]),~]]]]]!{;{{''',,+++$@$",
"$&$@$&&&]]&&>~]]]{'{]]{')+,=+$$&",
"$$$$$&]{]]]$-@&~]]{~~))]])###$&&",
"@&$$$&&@]!~]&$@$@,])$&@$)]###@$$",
"$&$$@@@.@]@&$&$$@&]]];$$&&.$$$&$",
"@$&&&$@$$$@&@$@&$$]]&&&&$&$&&@&$",
".@$&$@&@$$@$@$@&$@&$$&&&$&&@@@$$",
"$@$$@@&@@&$$$@@@$&&$@$&$@&&$@$@."};
